<mxfile host="app.diagrams.net" modified="2022-06-17T08:50:46.928Z" agent="5.0 (Windows NT 10.0; Win64; x64) AppleWebKit/537.36 (KHTML, like Gecko) Chrome/102.0.0.0 Safari/537.36" etag="JxWAAefJASE2A7RXb5PL" version="18.1.3" type="github">
  <diagram id="Bd8v8bqv1aSrCS4wnjEh" name="Page-1">
    <mxGraphModel dx="950" dy="573" grid="1" gridSize="10" guides="1" tooltips="1" connect="1" arrows="1" fold="1" page="1" pageScale="1" pageWidth="827" pageHeight="1169" math="0" shadow="0">
      <root>
        <mxCell id="0" />
        <mxCell id="1" parent="0" />
        <mxCell id="PlZ724OZz378tNGeEYj9-1" value="&lt;font style=&quot;font-size: 16px;&quot;&gt;宋教仁被暗杀&lt;/font&gt;" style="rounded=1;whiteSpace=wrap;html=1;" vertex="1" parent="1">
          <mxGeometry x="240" y="220" width="120" height="60" as="geometry" />
        </mxCell>
        <mxCell id="PlZ724OZz378tNGeEYj9-2" value="&lt;font style=&quot;font-size: 16px;&quot;&gt;袁世凯复辟&lt;/font&gt;" style="rounded=1;whiteSpace=wrap;html=1;" vertex="1" parent="1">
          <mxGeometry x="240" y="290" width="120" height="60" as="geometry" />
        </mxCell>
        <mxCell id="PlZ724OZz378tNGeEYj9-3" value="&lt;font style=&quot;font-size: 16px;&quot;&gt;段祺瑞拒绝恢复&lt;br&gt;临时约法&lt;/font&gt;" style="rounded=1;whiteSpace=wrap;html=1;" vertex="1" parent="1">
          <mxGeometry x="240" y="360" width="120" height="60" as="geometry" />
        </mxCell>
        <mxCell id="PlZ724OZz378tNGeEYj9-7" style="edgeStyle=orthogonalEdgeStyle;rounded=0;orthogonalLoop=1;jettySize=auto;html=1;exitX=0;exitY=0.5;exitDx=0;exitDy=0;entryX=1;entryY=0.5;entryDx=0;entryDy=0;fontSize=16;strokeWidth=2;" edge="1" parent="1" source="PlZ724OZz378tNGeEYj9-4" target="PlZ724OZz378tNGeEYj9-1">
          <mxGeometry relative="1" as="geometry" />
        </mxCell>
        <mxCell id="PlZ724OZz378tNGeEYj9-4" value="&lt;font style=&quot;font-size: 16px;&quot;&gt;二次革命&lt;/font&gt;" style="rounded=1;whiteSpace=wrap;html=1;" vertex="1" parent="1">
          <mxGeometry x="440" y="220" width="120" height="60" as="geometry" />
        </mxCell>
        <mxCell id="PlZ724OZz378tNGeEYj9-8" style="edgeStyle=orthogonalEdgeStyle;rounded=0;orthogonalLoop=1;jettySize=auto;html=1;exitX=0;exitY=0.5;exitDx=0;exitDy=0;entryX=1;entryY=0.5;entryDx=0;entryDy=0;fontSize=16;strokeWidth=2;" edge="1" parent="1" source="PlZ724OZz378tNGeEYj9-5" target="PlZ724OZz378tNGeEYj9-2">
          <mxGeometry relative="1" as="geometry" />
        </mxCell>
        <mxCell id="PlZ724OZz378tNGeEYj9-5" value="&lt;font style=&quot;font-size: 16px;&quot;&gt;护国运动&lt;/font&gt;" style="rounded=1;whiteSpace=wrap;html=1;" vertex="1" parent="1">
          <mxGeometry x="440" y="290" width="120" height="60" as="geometry" />
        </mxCell>
        <mxCell id="PlZ724OZz378tNGeEYj9-9" style="edgeStyle=orthogonalEdgeStyle;rounded=0;orthogonalLoop=1;jettySize=auto;html=1;exitX=0;exitY=0.5;exitDx=0;exitDy=0;entryX=1;entryY=0.5;entryDx=0;entryDy=0;fontSize=16;strokeWidth=2;" edge="1" parent="1" source="PlZ724OZz378tNGeEYj9-6" target="PlZ724OZz378tNGeEYj9-3">
          <mxGeometry relative="1" as="geometry" />
        </mxCell>
        <mxCell id="PlZ724OZz378tNGeEYj9-6" value="&lt;font style=&quot;font-size: 16px;&quot;&gt;护法运动&lt;/font&gt;" style="rounded=1;whiteSpace=wrap;html=1;" vertex="1" parent="1">
          <mxGeometry x="440" y="360" width="120" height="60" as="geometry" />
        </mxCell>
      </root>
    </mxGraphModel>
  </diagram>
</mxfile>
